<svg id="Capa_1" enable-background="new 0 0 448.036 448.036" height="512" viewBox="0 0 448.036 448.036" width="512" xmlns="http://www.w3.org/2000/svg"><g><g><g id="ouline_27_"><path d="m376.024 167.624c-.227-13.092-10.896-23.591-23.99-23.607h-56v-40c0-2.122-.843-4.157-2.343-5.657l-32-32c-1.301-1.294-3.008-2.099-4.834-2.28-.073-.012-.153-.021-.235-.03-.112-.008-65.069-.008-65.188 0-.075.008-.148.016-.215.027-1.829.181-3.539.987-4.842 2.282l-32 32c-1.501 1.501-2.343 3.536-2.343 5.658v40h-56c-13.094.016-23.763 10.515-23.99 23.607v.122c0 .091-.007.18-.007.271 0 2.3.332 4.588.985 6.793l29.229 182.683c1.671 10.692 10.899 18.562 21.721 18.524h200.124c10.823.04 20.053-7.831 21.724-18.524l29.229-182.683c.653-2.205.985-4.493.985-6.793 0-.091-.006-.18-.007-.271-.001-.041-.001-.082-.003-.122zm-111.99-76.294 16 16v36.687h-16zm-64 52.687v-32h48v32zm48-48h-48v-16h48zm-80 11.313 16-16v52.687h-16zm-72 52.687h256c4.227.005 7.721 3.298 7.976 7.517l-.552 3.448c-1.214 3.037-4.153 5.03-7.424 5.035h-256c-3.271-.005-6.21-1.998-7.424-5.035l-.552-3.448c.255-4.219 3.749-7.512 7.976-7.517zm104 96v-15.643l48-.208v15.851zm-32-64h16v52.687l-16-16zm80 32.148-48 .209v-32.357h48zm16-32.148h16v36.687l-16 16zm65.987 162.948c-.456 2.916-2.973 5.062-5.925 5.052h-200.124c-2.952.01-5.469-2.136-5.925-5.052l-26.129-163.308c1.359.238 2.736.358 4.116.36h56v40c0 2.122.843 4.157 2.343 5.657l32 32c1.497 1.497 3.525 2.339 5.642 2.343h64.03c2.116-.004 4.145-.846 5.642-2.342l32-32c1.501-1.501 2.343-3.536 2.343-5.658v-40h56c1.38-.002 2.757-.122 4.116-.36z"/><path d="m65.359 326.122c-4.411-.247-8.187 3.13-8.434 7.541l-.738 13.208c-62.991-85.8-50.944-206.24 29.2-277.9 76.765-68.634 192.189-70.788 271.461-5.064 3.363 2.866 8.412 2.463 11.278-.899 2.866-3.363 2.463-8.412-.899-11.278-.049-.041-.098-.082-.148-.123-85.367-70.794-209.682-68.481-292.357 5.439-85.655 76.595-99.08 204.929-32.962 297.2l-4.66-1.206c-4.277-1.107-8.642 1.464-9.749 5.741s1.464 8.642 5.741 9.749l27.925 7.225c4.277 1.107 8.642-1.463 9.749-5.74.132-.511.213-1.033.243-1.56l1.892-33.888c.253-4.411-3.118-8.192-7.53-8.444-.004 0-.008-.001-.012-.001z"/><path d="m406.304 93.799 4.665 1.207c4.277 1.107 8.642-1.464 9.749-5.741s-1.464-8.642-5.741-9.749l-27.925-7.225c-4.277-1.107-8.642 1.463-9.749 5.741-.093.36-.244 1.574-.244 1.574 0 .017-1.891 33.872-1.891 33.872-.247 4.411 3.13 8.187 7.541 8.434.153.008.3.012.454.012 4.242-.004 7.743-3.318 7.98-7.553l.738-13.211c67.849 92.703 47.702 222.856-45.001 290.705-34.831 25.493-76.73 39.519-119.889 40.134-.963.014-1.919.02-2.881.02-48.527.035-95.538-16.906-132.889-47.887-3.363-2.866-8.412-2.463-11.278.899-2.866 3.363-2.463 8.412.899 11.278.049.042.098.082.148.123 40.224 33.372 90.856 51.621 143.121 51.585 1.032 0 2.065-.007 3.1-.021 123.705-1.76 222.562-103.47 220.802-227.175-.649-45.6-15.2-89.916-41.709-127.025z"/></g></g></g></svg>