<svg width="237" height="219" viewBox="0 0 237 219" fill="none" xmlns="http://www.w3.org/2000/svg">
<g clip-path="url(#clip0)">
<path d="M198.907 81.9346C198.787 75.5352 193.144 70.4033 186.217 70.3955H156.595V50.8435C156.595 49.8062 156.149 48.8115 155.355 48.0783L138.428 32.4367C137.74 31.8042 136.837 31.4107 135.871 31.3223C135.832 31.3164 135.79 31.312 135.747 31.3076C135.687 31.3037 101.327 31.3037 101.264 31.3076C101.224 31.3115 101.186 31.3154 101.15 31.3208C100.183 31.4093 99.2781 31.8032 98.5888 32.4362L81.6616 48.0778C80.8676 48.8115 80.4222 49.8062 80.4222 50.8435V70.3955H50.7996C43.8732 70.4033 38.2296 75.5352 38.1095 81.9346V81.9942C38.1095 82.0387 38.1058 82.0822 38.1058 82.1267C38.1058 83.2509 38.2814 84.3693 38.6268 85.4471L54.0882 174.743C54.9721 179.969 59.8535 183.816 65.5781 183.797H171.439C177.164 183.817 182.046 179.969 182.93 174.743L198.392 85.4471C198.737 84.3693 198.913 83.2509 198.913 82.1267C198.913 82.0822 198.909 82.0387 198.909 81.9942C198.908 81.9741 198.908 81.9541 198.907 81.9346V81.9346ZM139.667 44.6421L148.131 52.4629V70.3955H139.667V44.6421ZM105.813 70.3955V54.7539H131.204V70.3955H105.813ZM131.204 46.9331H105.813V39.1123H131.204V46.9331ZM88.8858 52.4629L97.3494 44.6421V70.3955H88.8858V52.4629ZM50.7996 78.2163H186.217C188.453 78.2187 190.301 79.8283 190.436 81.8906L190.144 83.5759C189.502 85.0604 187.948 86.0346 186.217 86.0371H50.7996C49.0693 86.0346 47.5147 85.0604 46.8725 83.5759L46.5805 81.8906C46.7154 79.8283 48.5636 78.2187 50.7996 78.2163V78.2163ZM105.813 125.141V117.495L131.204 117.393V125.141H105.813ZM88.8858 93.8579H97.3494V119.611L88.8858 111.79V93.8579ZM131.204 109.572L105.813 109.674V93.8579H131.204V109.572ZM139.667 93.8579H148.131V111.79L139.667 119.611V93.8579ZM174.573 173.507C174.332 174.932 173 175.981 171.439 175.976H65.5781C64.0166 175.981 62.6851 174.932 62.4439 173.507L48.6223 93.6819C49.3412 93.7982 50.0696 93.8569 50.7996 93.8579H80.4222V113.41C80.4222 114.447 80.8681 115.442 81.6616 116.175L98.5888 131.817C99.3807 132.548 100.453 132.96 101.573 132.962H135.444C136.563 132.96 137.636 132.548 138.428 131.817L155.355 116.175C156.149 115.442 156.595 114.447 156.595 113.41V93.8579H186.217C186.947 93.8569 187.676 93.7982 188.395 93.6819L174.573 173.507Z" fill="#E95420"/>
<path d="M34.5733 159.41C32.24 159.289 30.2426 160.94 30.1119 163.096L29.7215 169.552C-3.59915 127.613 2.77342 68.7419 45.1676 33.7144C85.7744 0.166144 146.831 -0.88673 188.764 31.2392C190.543 32.6401 193.214 32.4431 194.73 30.7997C196.246 29.1559 196.032 26.6879 194.254 25.287C194.228 25.267 194.202 25.247 194.176 25.2269C149.019 -9.37719 83.2591 -8.24659 39.5261 27.8855C-5.78329 65.3251 -12.8848 128.055 22.09 173.157L19.625 172.567C17.3626 172.026 15.0536 173.283 14.468 175.374C13.8824 177.464 15.2424 179.598 17.5048 180.139L32.2765 183.67C34.5389 184.212 36.8479 182.955 37.4335 180.865C37.5033 180.615 37.5461 180.36 37.562 180.102L38.5628 163.538C38.6967 161.382 36.9135 159.534 34.5796 159.41C34.5775 159.41 34.5754 159.41 34.5733 159.41V159.41Z" fill="#117A8B"/>
<path d="M214.925 45.8489L217.393 46.4389C219.655 46.98 221.964 45.7233 222.55 43.6327C223.135 41.5421 221.775 39.4085 219.513 38.8674L204.741 35.3358C202.479 34.7947 200.17 36.0509 199.584 38.142C199.535 38.318 199.455 38.9114 199.455 38.9114C199.455 38.9197 198.455 55.468 198.455 55.468C198.324 57.6241 200.11 59.4698 202.444 59.5905C202.525 59.5944 202.602 59.5964 202.684 59.5964C204.928 59.5944 206.78 57.9746 206.905 55.9045L207.295 49.447C243.186 94.7602 232.529 158.379 183.491 191.544C165.066 204.005 142.903 210.86 120.073 211.161C119.563 211.168 119.058 211.171 118.549 211.171C92.8791 211.188 68.0114 202.907 48.2537 187.764C46.4747 186.363 43.8039 186.56 42.2879 188.203C40.7718 189.847 40.985 192.315 42.7634 193.716C42.7894 193.736 42.8153 193.756 42.8417 193.776C64.1192 210.088 90.9023 219.008 118.549 218.991C119.095 218.991 119.642 218.987 120.189 218.98C185.626 218.12 237.919 168.404 236.988 107.937C236.645 85.648 228.947 63.9863 214.925 45.8474V45.8489Z" fill="#117A8B"/>
<path d="M69.7979 146.893L71.624 152.049L73.4404 146.893H75.3643V154.002H73.8945V152.059L74.041 148.704L72.1221 154.002H71.1162L69.2021 148.709L69.3486 152.059V154.002H67.8838V146.893H69.7979ZM80.9209 150.921H78.1084V152.825H81.4092V154.002H76.6436V146.893H81.3994V148.079H78.1084V149.773H80.9209V150.921ZM84.9004 151.399H83.7334V154.002H82.2686V146.893H84.9102C85.75 146.893 86.3978 147.08 86.8535 147.454C87.3092 147.828 87.5371 148.357 87.5371 149.041C87.5371 149.526 87.4313 149.931 87.2197 150.257C87.0114 150.579 86.694 150.836 86.2676 151.028L87.8057 153.934V154.002H86.2334L84.9004 151.399ZM83.7334 150.213H84.915C85.2829 150.213 85.5677 150.12 85.7695 149.935C85.9714 149.746 86.0723 149.487 86.0723 149.158C86.0723 148.823 85.9762 148.559 85.7842 148.367C85.5954 148.175 85.304 148.079 84.9102 148.079H83.7334V150.213ZM94.4365 154.002H92.9717L90.1201 149.324V154.002H88.6553V146.893H90.1201L92.9766 151.58V146.893H94.4365V154.002ZM102.22 152.537H99.6514L99.1631 154.002H97.6055L100.252 146.893H101.609L104.271 154.002H102.713L102.22 152.537ZM100.047 151.351H101.824L100.931 148.689L100.047 151.351ZM107.947 153.465C107.599 153.888 107.117 154.1 106.502 154.1C105.936 154.1 105.503 153.937 105.203 153.611C104.907 153.286 104.756 152.809 104.749 152.181V148.719H106.16V152.132C106.16 152.682 106.411 152.957 106.912 152.957C107.391 152.957 107.719 152.791 107.898 152.459V148.719H109.314V154.002H107.986L107.947 153.465ZM112.068 147.42V148.719H112.972V149.754H112.068V152.391C112.068 152.586 112.106 152.726 112.181 152.811C112.256 152.895 112.399 152.938 112.61 152.938C112.767 152.938 112.905 152.926 113.025 152.903V153.973C112.749 154.057 112.464 154.1 112.171 154.1C111.181 154.1 110.677 153.6 110.657 152.601V149.754H109.886V148.719H110.657V147.42H112.068ZM115.135 149.295C115.509 148.846 115.979 148.621 116.546 148.621C117.692 148.621 118.273 149.287 118.289 150.618V154.002H116.878V150.657C116.878 150.354 116.813 150.132 116.683 149.988C116.552 149.842 116.336 149.769 116.033 149.769C115.62 149.769 115.32 149.928 115.135 150.247V154.002H113.724V146.502H115.135V149.295ZM121.785 154.1C121.01 154.1 120.379 153.862 119.891 153.387C119.406 152.911 119.163 152.278 119.163 151.487V151.351C119.163 150.82 119.266 150.346 119.471 149.93C119.676 149.51 119.965 149.188 120.34 148.963C120.717 148.735 121.147 148.621 121.629 148.621C122.352 148.621 122.92 148.849 123.333 149.305C123.75 149.76 123.958 150.407 123.958 151.243V151.819H120.594C120.639 152.164 120.776 152.441 121.004 152.649C121.235 152.858 121.526 152.962 121.878 152.962C122.422 152.962 122.846 152.765 123.152 152.371L123.846 153.147C123.634 153.447 123.348 153.681 122.986 153.851C122.625 154.017 122.225 154.1 121.785 154.1ZM121.624 149.764C121.344 149.764 121.116 149.858 120.94 150.047C120.768 150.236 120.657 150.506 120.608 150.857H122.571V150.745C122.565 150.433 122.48 150.192 122.317 150.022C122.155 149.85 121.924 149.764 121.624 149.764ZM126.062 148.719L126.106 149.329C126.484 148.857 126.99 148.621 127.625 148.621C128.185 148.621 128.602 148.785 128.875 149.114C129.148 149.443 129.288 149.935 129.295 150.589V154.002H127.884V150.623C127.884 150.324 127.819 150.107 127.688 149.974C127.558 149.837 127.342 149.769 127.039 149.769C126.642 149.769 126.344 149.938 126.146 150.276V154.002H124.734V148.719H126.062ZM132.059 147.42V148.719H132.962V149.754H132.059V152.391C132.059 152.586 132.096 152.726 132.171 152.811C132.246 152.895 132.389 152.938 132.601 152.938C132.757 152.938 132.895 152.926 133.016 152.903V153.973C132.739 154.057 132.454 154.1 132.161 154.1C131.172 154.1 130.667 153.6 130.647 152.601V149.754H129.876V148.719H130.647V147.42H132.059ZM135.237 154.002H133.821V148.719H135.237V154.002ZM133.738 147.352C133.738 147.14 133.808 146.966 133.948 146.829C134.091 146.692 134.285 146.624 134.529 146.624C134.77 146.624 134.962 146.692 135.105 146.829C135.249 146.966 135.32 147.14 135.32 147.352C135.32 147.566 135.247 147.742 135.101 147.879C134.957 148.016 134.767 148.084 134.529 148.084C134.292 148.084 134.1 148.016 133.953 147.879C133.81 147.742 133.738 147.566 133.738 147.352ZM138.602 152.962C138.862 152.962 139.074 152.89 139.236 152.747C139.399 152.604 139.484 152.413 139.49 152.176H140.813C140.81 152.534 140.713 152.863 140.521 153.162C140.328 153.458 140.065 153.689 139.729 153.855C139.397 154.018 139.03 154.1 138.626 154.1C137.871 154.1 137.275 153.86 136.839 153.382C136.403 152.9 136.185 152.236 136.185 151.39V151.297C136.185 150.483 136.401 149.834 136.834 149.349C137.267 148.864 137.861 148.621 138.616 148.621C139.277 148.621 139.806 148.81 140.203 149.188C140.604 149.562 140.807 150.062 140.813 150.687H139.49C139.484 150.413 139.399 150.192 139.236 150.022C139.074 149.85 138.859 149.764 138.592 149.764C138.263 149.764 138.014 149.884 137.845 150.125C137.679 150.363 137.596 150.75 137.596 151.287V151.434C137.596 151.977 137.679 152.368 137.845 152.605C138.011 152.843 138.263 152.962 138.602 152.962ZM144.681 154.002C144.616 153.875 144.568 153.717 144.539 153.528C144.197 153.909 143.753 154.1 143.206 154.1C142.688 154.1 142.259 153.95 141.917 153.65C141.578 153.351 141.409 152.973 141.409 152.518C141.409 151.958 141.616 151.528 142.029 151.229C142.446 150.929 143.047 150.778 143.831 150.774H144.48V150.472C144.48 150.228 144.417 150.032 144.29 149.886C144.166 149.739 143.969 149.666 143.699 149.666C143.462 149.666 143.274 149.723 143.138 149.837C143.004 149.951 142.938 150.107 142.938 150.306H141.526C141.526 150 141.621 149.716 141.81 149.456C141.998 149.196 142.265 148.992 142.61 148.846C142.955 148.696 143.343 148.621 143.772 148.621C144.424 148.621 144.939 148.785 145.32 149.114C145.704 149.44 145.896 149.899 145.896 150.491V152.781C145.9 153.283 145.97 153.662 146.106 153.919V154.002H144.681ZM143.514 153.021C143.722 153.021 143.914 152.975 144.09 152.884C144.266 152.789 144.396 152.664 144.48 152.508V151.6H143.953C143.247 151.6 142.871 151.844 142.825 152.332L142.82 152.415C142.82 152.591 142.882 152.736 143.006 152.85C143.13 152.964 143.299 153.021 143.514 153.021ZM148.67 147.42V148.719H149.573V149.754H148.67V152.391C148.67 152.586 148.707 152.726 148.782 152.811C148.857 152.895 149 152.938 149.212 152.938C149.368 152.938 149.507 152.926 149.627 152.903V153.973C149.35 154.057 149.065 154.1 148.772 154.1C147.783 154.1 147.278 153.6 147.259 152.601V149.754H146.487V148.719H147.259V147.42H148.67ZM151.849 154.002H150.433V148.719H151.849V154.002ZM150.35 147.352C150.35 147.14 150.42 146.966 150.56 146.829C150.703 146.692 150.896 146.624 151.141 146.624C151.382 146.624 151.574 146.692 151.717 146.829C151.86 146.966 151.932 147.14 151.932 147.352C151.932 147.566 151.858 147.742 151.712 147.879C151.569 148.016 151.378 148.084 151.141 148.084C150.903 148.084 150.711 148.016 150.564 147.879C150.421 147.742 150.35 147.566 150.35 147.352ZM152.796 151.312C152.796 150.787 152.897 150.32 153.099 149.91C153.3 149.5 153.59 149.183 153.968 148.958C154.349 148.733 154.79 148.621 155.291 148.621C156.004 148.621 156.585 148.839 157.034 149.275C157.487 149.712 157.739 150.304 157.791 151.053L157.801 151.414C157.801 152.225 157.575 152.876 157.122 153.367C156.67 153.855 156.062 154.1 155.301 154.1C154.539 154.1 153.93 153.855 153.475 153.367C153.022 152.879 152.796 152.215 152.796 151.375V151.312ZM154.207 151.414C154.207 151.915 154.301 152.299 154.49 152.566C154.679 152.83 154.949 152.962 155.301 152.962C155.643 152.962 155.91 152.832 156.102 152.571C156.294 152.308 156.39 151.888 156.39 151.312C156.39 150.82 156.294 150.439 156.102 150.169C155.91 149.899 155.639 149.764 155.291 149.764C154.946 149.764 154.679 149.899 154.49 150.169C154.301 150.436 154.207 150.851 154.207 151.414ZM159.969 148.719L160.013 149.329C160.39 148.857 160.896 148.621 161.531 148.621C162.091 148.621 162.508 148.785 162.781 149.114C163.055 149.443 163.195 149.935 163.201 150.589V154.002H161.79V150.623C161.79 150.324 161.725 150.107 161.595 149.974C161.465 149.837 161.248 149.769 160.945 149.769C160.548 149.769 160.25 149.938 160.052 150.276V154.002H158.641V148.719H159.969ZM78.3082 165.092C77.9282 165.092 77.5482 165.079 77.1682 165.052C76.7949 165.032 76.4049 164.979 75.9982 164.892V158.172C76.3182 158.112 76.6682 158.069 77.0482 158.042C77.4282 158.009 77.7816 157.992 78.1082 157.992C78.5482 157.992 78.9516 158.025 79.3182 158.092C79.6916 158.152 80.0116 158.259 80.2782 158.412C80.5449 158.565 80.7516 158.769 80.8982 159.022C81.0516 159.269 81.1282 159.575 81.1282 159.942C81.1282 160.495 80.8616 160.932 80.3282 161.252C80.7682 161.419 81.0682 161.645 81.2282 161.932C81.3882 162.219 81.4682 162.542 81.4682 162.902C81.4682 163.629 81.2016 164.175 80.6682 164.542C80.1416 164.909 79.3549 165.092 78.3082 165.092ZM77.5182 161.982V163.772C77.6316 163.785 77.7549 163.795 77.8882 163.802C78.0216 163.809 78.1682 163.812 78.3282 163.812C78.7949 163.812 79.1716 163.745 79.4582 163.612C79.7449 163.479 79.8882 163.232 79.8882 162.872C79.8882 162.552 79.7682 162.325 79.5282 162.192C79.2882 162.052 78.9449 161.982 78.4982 161.982H77.5182ZM77.5182 160.792H78.2782C78.7582 160.792 79.1016 160.732 79.3082 160.612C79.5149 160.485 79.6182 160.285 79.6182 160.012C79.6182 159.732 79.5116 159.535 79.2982 159.422C79.0849 159.309 78.7716 159.252 78.3582 159.252C78.2249 159.252 78.0816 159.255 77.9282 159.262C77.7749 159.262 77.6382 159.269 77.5182 159.282V160.792ZM84.107 165.002H82.617V159.742H84.107V165.002ZM84.247 158.222C84.247 158.495 84.157 158.712 83.977 158.872C83.8037 159.025 83.597 159.102 83.357 159.102C83.117 159.102 82.907 159.025 82.727 158.872C82.5537 158.712 82.467 158.495 82.467 158.222C82.467 157.949 82.5537 157.735 82.727 157.582C82.907 157.422 83.117 157.342 83.357 157.342C83.597 157.342 83.8037 157.422 83.977 157.582C84.157 157.735 84.247 157.949 84.247 158.222ZM90.4276 162.362C90.4276 162.775 90.3676 163.155 90.2476 163.502C90.1276 163.842 89.9543 164.135 89.7276 164.382C89.501 164.622 89.2276 164.809 88.9076 164.942C88.5943 165.075 88.241 165.142 87.8476 165.142C87.461 165.142 87.1076 165.075 86.7876 164.942C86.4743 164.809 86.2043 164.622 85.9776 164.382C85.751 164.135 85.5743 163.842 85.4476 163.502C85.321 163.155 85.2576 162.775 85.2576 162.362C85.2576 161.949 85.321 161.572 85.4476 161.232C85.581 160.892 85.761 160.602 85.9876 160.362C86.221 160.122 86.4943 159.935 86.8076 159.802C87.1276 159.669 87.4743 159.602 87.8476 159.602C88.2276 159.602 88.5743 159.669 88.8876 159.802C89.2076 159.935 89.481 160.122 89.7076 160.362C89.9343 160.602 90.111 160.892 90.2376 161.232C90.3643 161.572 90.4276 161.949 90.4276 162.362ZM88.9076 162.362C88.9076 161.902 88.8143 161.542 88.6276 161.282C88.4476 161.015 88.1876 160.882 87.8476 160.882C87.5076 160.882 87.2443 161.015 87.0576 161.282C86.871 161.542 86.7776 161.902 86.7776 162.362C86.7776 162.822 86.871 163.189 87.0576 163.462C87.2443 163.729 87.5076 163.862 87.8476 163.862C88.1876 163.862 88.4476 163.729 88.6276 163.462C88.8143 163.189 88.9076 162.822 88.9076 162.362ZM93.6818 165.102C93.2485 165.095 92.8952 165.049 92.6218 164.962C92.3552 164.875 92.1418 164.755 91.9818 164.602C91.8285 164.442 91.7218 164.252 91.6618 164.032C91.6085 163.805 91.5818 163.552 91.5818 163.272V157.482L93.0718 157.242V162.972C93.0718 163.105 93.0818 163.225 93.1018 163.332C93.1218 163.439 93.1585 163.529 93.2118 163.602C93.2718 163.675 93.3552 163.735 93.4618 163.782C93.5685 163.829 93.7118 163.859 93.8918 163.872L93.6818 165.102ZM94.4959 162.412C94.4959 161.945 94.5659 161.539 94.7059 161.192C94.8526 160.839 95.0426 160.545 95.2759 160.312C95.5092 160.079 95.7759 159.902 96.0759 159.782C96.3826 159.662 96.6959 159.602 97.0159 159.602C97.7626 159.602 98.3526 159.832 98.7859 160.292C99.2192 160.745 99.4359 161.415 99.4359 162.302C99.4359 162.389 99.4326 162.485 99.4259 162.592C99.4192 162.692 99.4126 162.782 99.4059 162.862H96.0259C96.0592 163.169 96.2026 163.412 96.4559 163.592C96.7092 163.772 97.0492 163.862 97.4759 163.862C97.7492 163.862 98.0159 163.839 98.2759 163.792C98.5426 163.739 98.7592 163.675 98.9259 163.602L99.1259 164.812C99.0459 164.852 98.9392 164.892 98.8059 164.932C98.6726 164.972 98.5226 165.005 98.3559 165.032C98.1959 165.065 98.0226 165.092 97.8359 165.112C97.6492 165.132 97.4626 165.142 97.2759 165.142C96.8026 165.142 96.3892 165.072 96.0359 164.932C95.6892 164.792 95.3992 164.602 95.1659 164.362C94.9392 164.115 94.7692 163.825 94.6559 163.492C94.5492 163.159 94.4959 162.799 94.4959 162.412ZM97.9959 161.842C97.9892 161.715 97.9659 161.592 97.9259 161.472C97.8926 161.352 97.8359 161.245 97.7559 161.152C97.6826 161.059 97.5859 160.982 97.4659 160.922C97.3526 160.862 97.2092 160.832 97.0359 160.832C96.8692 160.832 96.7259 160.862 96.6059 160.922C96.4859 160.975 96.3859 161.049 96.3059 161.142C96.2259 161.235 96.1626 161.345 96.1159 161.472C96.0759 161.592 96.0459 161.715 96.0259 161.842H97.9959ZM103.756 161.062C103.622 161.029 103.466 160.995 103.286 160.962C103.106 160.922 102.912 160.902 102.706 160.902C102.612 160.902 102.499 160.912 102.366 160.932C102.239 160.945 102.142 160.962 102.076 160.982V165.002H100.586V160.022C100.852 159.929 101.166 159.842 101.526 159.762C101.892 159.675 102.299 159.632 102.746 159.632C102.826 159.632 102.922 159.639 103.036 159.652C103.149 159.659 103.262 159.672 103.376 159.692C103.489 159.705 103.602 159.725 103.716 159.752C103.829 159.772 103.926 159.799 104.006 159.832L103.756 161.062ZM108.174 162.412C108.174 161.952 108.071 161.585 107.864 161.312C107.658 161.032 107.351 160.892 106.944 160.892C106.811 160.892 106.688 160.899 106.574 160.912C106.461 160.919 106.368 160.929 106.294 160.942V163.632C106.388 163.692 106.508 163.742 106.654 163.782C106.808 163.822 106.961 163.842 107.114 163.842C107.821 163.842 108.174 163.365 108.174 162.412ZM109.694 162.372C109.694 162.779 109.644 163.149 109.544 163.482C109.444 163.815 109.298 164.102 109.104 164.342C108.911 164.582 108.671 164.769 108.384 164.902C108.098 165.035 107.768 165.102 107.394 165.102C107.188 165.102 106.994 165.082 106.814 165.042C106.634 165.002 106.461 164.945 106.294 164.872V166.852H104.804V159.922C104.938 159.882 105.091 159.845 105.264 159.812C105.438 159.772 105.618 159.739 105.804 159.712C105.998 159.685 106.191 159.665 106.384 159.652C106.584 159.632 106.774 159.622 106.954 159.622C107.388 159.622 107.774 159.689 108.114 159.822C108.454 159.949 108.741 160.132 108.974 160.372C109.208 160.605 109.384 160.892 109.504 161.232C109.631 161.572 109.694 161.952 109.694 162.372ZM112.94 165.102C112.506 165.095 112.153 165.049 111.88 164.962C111.613 164.875 111.4 164.755 111.24 164.602C111.086 164.442 110.98 164.252 110.92 164.032C110.866 163.805 110.84 163.552 110.84 163.272V157.482L112.33 157.242V162.972C112.33 163.105 112.34 163.225 112.36 163.332C112.38 163.439 112.416 163.529 112.47 163.602C112.53 163.675 112.613 163.735 112.72 163.782C112.826 163.829 112.97 163.859 113.15 163.872L112.94 165.102ZM116.16 163.962C116.307 163.962 116.447 163.959 116.58 163.952C116.714 163.945 116.82 163.935 116.9 163.922V162.792C116.84 162.779 116.75 162.765 116.63 162.752C116.51 162.739 116.4 162.732 116.3 162.732C116.16 162.732 116.027 162.742 115.9 162.762C115.78 162.775 115.674 162.805 115.58 162.852C115.487 162.899 115.414 162.962 115.36 163.042C115.307 163.122 115.28 163.222 115.28 163.342C115.28 163.575 115.357 163.739 115.51 163.832C115.67 163.919 115.887 163.962 116.16 163.962ZM116.04 159.602C116.48 159.602 116.847 159.652 117.14 159.752C117.434 159.852 117.667 159.995 117.84 160.182C118.02 160.369 118.147 160.595 118.22 160.862C118.294 161.129 118.33 161.425 118.33 161.752V164.852C118.117 164.899 117.82 164.952 117.44 165.012C117.06 165.079 116.6 165.112 116.06 165.112C115.72 165.112 115.41 165.082 115.13 165.022C114.857 164.962 114.62 164.865 114.42 164.732C114.22 164.592 114.067 164.412 113.96 164.192C113.854 163.972 113.8 163.702 113.8 163.382C113.8 163.075 113.86 162.815 113.98 162.602C114.107 162.389 114.274 162.219 114.48 162.092C114.687 161.965 114.924 161.875 115.19 161.822C115.457 161.762 115.734 161.732 116.02 161.732C116.214 161.732 116.384 161.742 116.53 161.762C116.684 161.775 116.807 161.795 116.9 161.822V161.682C116.9 161.429 116.824 161.225 116.67 161.072C116.517 160.919 116.25 160.842 115.87 160.842C115.617 160.842 115.367 160.862 115.12 160.902C114.874 160.935 114.66 160.985 114.48 161.052L114.29 159.852C114.377 159.825 114.484 159.799 114.61 159.772C114.744 159.739 114.887 159.712 115.04 159.692C115.194 159.665 115.354 159.645 115.52 159.632C115.694 159.612 115.867 159.602 116.04 159.602ZM119.628 158.432L121.118 158.192V159.742H122.908V160.982H121.118V162.832C121.118 163.145 121.171 163.395 121.278 163.582C121.391 163.769 121.614 163.862 121.948 163.862C122.108 163.862 122.271 163.849 122.438 163.822C122.611 163.789 122.768 163.745 122.908 163.692L123.118 164.852C122.938 164.925 122.738 164.989 122.518 165.042C122.298 165.095 122.028 165.122 121.708 165.122C121.301 165.122 120.964 165.069 120.698 164.962C120.431 164.849 120.218 164.695 120.058 164.502C119.898 164.302 119.784 164.062 119.718 163.782C119.658 163.502 119.628 163.192 119.628 162.852V158.432ZM123.676 162.412C123.676 161.945 123.746 161.539 123.886 161.192C124.032 160.839 124.222 160.545 124.456 160.312C124.689 160.079 124.956 159.902 125.256 159.782C125.562 159.662 125.876 159.602 126.196 159.602C126.942 159.602 127.532 159.832 127.966 160.292C128.399 160.745 128.616 161.415 128.616 162.302C128.616 162.389 128.612 162.485 128.606 162.592C128.599 162.692 128.592 162.782 128.586 162.862H125.206C125.239 163.169 125.382 163.412 125.636 163.592C125.889 163.772 126.229 163.862 126.656 163.862C126.929 163.862 127.196 163.839 127.456 163.792C127.722 163.739 127.939 163.675 128.106 163.602L128.306 164.812C128.226 164.852 128.119 164.892 127.986 164.932C127.852 164.972 127.702 165.005 127.536 165.032C127.376 165.065 127.202 165.092 127.016 165.112C126.829 165.132 126.642 165.142 126.456 165.142C125.982 165.142 125.569 165.072 125.216 164.932C124.869 164.792 124.579 164.602 124.346 164.362C124.119 164.115 123.949 163.825 123.836 163.492C123.729 163.159 123.676 162.799 123.676 162.412ZM127.176 161.842C127.169 161.715 127.146 161.592 127.106 161.472C127.072 161.352 127.016 161.245 126.936 161.152C126.862 161.059 126.766 160.982 126.646 160.922C126.532 160.862 126.389 160.832 126.216 160.832C126.049 160.832 125.906 160.862 125.786 160.922C125.666 160.975 125.566 161.049 125.486 161.142C125.406 161.235 125.342 161.345 125.296 161.472C125.256 161.592 125.226 161.715 125.206 161.842H127.176ZM135.428 165.142C134.301 165.142 133.441 164.829 132.848 164.202C132.261 163.575 131.968 162.685 131.968 161.532C131.968 160.959 132.058 160.449 132.238 160.002C132.418 159.549 132.664 159.169 132.978 158.862C133.291 158.549 133.664 158.312 134.098 158.152C134.531 157.992 135.001 157.912 135.508 157.912C135.801 157.912 136.068 157.935 136.308 157.982C136.548 158.022 136.758 158.072 136.938 158.132C137.118 158.185 137.268 158.242 137.388 158.302C137.508 158.362 137.594 158.409 137.648 158.442L137.198 159.702C136.984 159.589 136.734 159.492 136.448 159.412C136.168 159.332 135.848 159.292 135.488 159.292C135.248 159.292 135.011 159.332 134.778 159.412C134.551 159.492 134.348 159.622 134.168 159.802C133.994 159.975 133.854 160.202 133.748 160.482C133.641 160.762 133.588 161.102 133.588 161.502C133.588 161.822 133.621 162.122 133.688 162.402C133.761 162.675 133.874 162.912 134.028 163.112C134.188 163.312 134.394 163.472 134.648 163.592C134.901 163.705 135.208 163.762 135.568 163.762C135.794 163.762 135.998 163.749 136.178 163.722C136.358 163.695 136.518 163.665 136.658 163.632C136.798 163.592 136.921 163.549 137.028 163.502C137.134 163.455 137.231 163.412 137.318 163.372L137.748 164.622C137.528 164.755 137.218 164.875 136.818 164.982C136.418 165.089 135.954 165.142 135.428 165.142ZM143.455 162.362C143.455 162.775 143.395 163.155 143.275 163.502C143.155 163.842 142.982 164.135 142.755 164.382C142.528 164.622 142.255 164.809 141.935 164.942C141.622 165.075 141.268 165.142 140.875 165.142C140.488 165.142 140.135 165.075 139.815 164.942C139.502 164.809 139.232 164.622 139.005 164.382C138.778 164.135 138.602 163.842 138.475 163.502C138.348 163.155 138.285 162.775 138.285 162.362C138.285 161.949 138.348 161.572 138.475 161.232C138.608 160.892 138.788 160.602 139.015 160.362C139.248 160.122 139.522 159.935 139.835 159.802C140.155 159.669 140.502 159.602 140.875 159.602C141.255 159.602 141.602 159.669 141.915 159.802C142.235 159.935 142.508 160.122 142.735 160.362C142.962 160.602 143.138 160.892 143.265 161.232C143.392 161.572 143.455 161.949 143.455 162.362ZM141.935 162.362C141.935 161.902 141.842 161.542 141.655 161.282C141.475 161.015 141.215 160.882 140.875 160.882C140.535 160.882 140.272 161.015 140.085 161.282C139.898 161.542 139.805 161.902 139.805 162.362C139.805 162.822 139.898 163.189 140.085 163.462C140.272 163.729 140.535 163.862 140.875 163.862C141.215 163.862 141.475 163.729 141.655 163.462C141.842 163.189 141.935 162.822 141.935 162.362ZM145.879 162.332C145.879 162.792 145.983 163.162 146.189 163.442C146.396 163.722 146.703 163.862 147.109 163.862C147.243 163.862 147.366 163.859 147.479 163.852C147.593 163.839 147.686 163.825 147.759 163.812V161.102C147.666 161.042 147.543 160.992 147.389 160.952C147.243 160.912 147.093 160.892 146.939 160.892C146.233 160.892 145.879 161.372 145.879 162.332ZM149.249 164.832C149.116 164.872 148.963 164.912 148.789 164.952C148.616 164.985 148.433 165.015 148.239 165.042C148.053 165.069 147.859 165.089 147.659 165.102C147.466 165.122 147.279 165.132 147.099 165.132C146.666 165.132 146.279 165.069 145.939 164.942C145.599 164.815 145.313 164.635 145.079 164.402C144.846 164.162 144.666 163.875 144.539 163.542C144.419 163.202 144.359 162.822 144.359 162.402C144.359 161.975 144.413 161.592 144.519 161.252C144.626 160.905 144.779 160.612 144.979 160.372C145.179 160.132 145.423 159.949 145.709 159.822C146.003 159.695 146.336 159.632 146.709 159.632C146.916 159.632 147.099 159.652 147.259 159.692C147.426 159.732 147.593 159.789 147.759 159.862V157.482L149.249 157.242V164.832ZM150.394 162.412C150.394 161.945 150.464 161.539 150.604 161.192C150.751 160.839 150.941 160.545 151.174 160.312C151.408 160.079 151.674 159.902 151.974 159.782C152.281 159.662 152.594 159.602 152.914 159.602C153.661 159.602 154.251 159.832 154.684 160.292C155.118 160.745 155.334 161.415 155.334 162.302C155.334 162.389 155.331 162.485 155.324 162.592C155.318 162.692 155.311 162.782 155.304 162.862H151.924C151.958 163.169 152.101 163.412 152.354 163.592C152.608 163.772 152.948 163.862 153.374 163.862C153.648 163.862 153.914 163.839 154.174 163.792C154.441 163.739 154.658 163.675 154.824 163.602L155.024 164.812C154.944 164.852 154.838 164.892 154.704 164.932C154.571 164.972 154.421 165.005 154.254 165.032C154.094 165.065 153.921 165.092 153.734 165.112C153.548 165.132 153.361 165.142 153.174 165.142C152.701 165.142 152.288 165.072 151.934 164.932C151.588 164.792 151.298 164.602 151.064 164.362C150.838 164.115 150.668 163.825 150.554 163.492C150.448 163.159 150.394 162.799 150.394 162.412ZM153.894 161.842C153.888 161.715 153.864 161.592 153.824 161.472C153.791 161.352 153.734 161.245 153.654 161.152C153.581 161.059 153.484 160.982 153.364 160.922C153.251 160.862 153.108 160.832 152.934 160.832C152.768 160.832 152.624 160.862 152.504 160.922C152.384 160.975 152.284 161.049 152.204 161.142C152.124 161.235 152.061 161.345 152.014 161.472C151.974 161.592 151.944 161.715 151.924 161.842H153.894Z" fill="#138496"/>
</g>
<defs>
<clipPath id="clip0">
<rect width="237" height="219" fill="white"/>
</clipPath>
</defs>
</svg>
